<svg id="Layer_1" data-name="Layer 1" xmlns="http://www.w3.org/2000/svg" viewBox="0 0 46.03 8.36"><defs><style>.cls-1{fill:#231f20;}</style></defs><title>unpaid</title><path class="cls-1" d="M4.2,4.17V4.94l-0.07,1V7.76A3,3,0,0,0,4.32,9a1.28,1.28,0,0,0,.7.6,2.5,2.5,0,0,0,1,.2,2.35,2.35,0,0,0,1.13-.25,1.19,1.19,0,0,0,.61-0.68,3.81,3.81,0,0,0,.15-1.09V4.68q0-.91,0-1A0.61,0.61,0,0,0,7.26,3L7,3.06l-0.32,0A0.36,0.36,0,0,1,6.44,3,0.38,0.38,0,0,1,6.33,2.7a0.43,0.43,0,0,1,.53-0.43H7l0.71,0.1a4.49,4.49,0,0,0,.6,0,3.6,3.6,0,0,0,.54,0L9.39,2.3l0.29,0a0.41,0.41,0,0,1,.5.41,0.4,0.4,0,0,1-.49.41H9.44A0.42,0.42,0,0,0,9,3.45a11.42,11.42,0,0,0-.08,1.84V7.38a9.28,9.28,0,0,1,0,1.12,2.46,2.46,0,0,1-.41,1,2.75,2.75,0,0,1-2.44,1q-2.11,0-2.72-1.38a3.3,3.3,0,0,1-.19-1.3q0-.43,0-1.27t0-1.27V4.73q0-.87,0-1Q3.08,3.09,2.69,3.09H2.34a0.41,0.41,0,0,1-.5-0.41A0.38,0.38,0,0,1,2.3,2.27a2.49,2.49,0,0,1,.41,0,6.76,6.76,0,0,0,1.09.1A7.62,7.62,0,0,0,5,2.3l0.31,0a0.4,0.4,0,0,1,.49.41,0.37,0.37,0,0,1-.42.41l-0.29,0L4.79,3a0.51,0.51,0,0,0-.52.41A3,3,0,0,0,4.2,4.17Z" transform="translate(-1.84 -2.22)"/><path class="cls-1" d="M13.8,2.81L17,9.52V4.68q0-.94,0-1A0.61,0.61,0,0,0,16.41,3l-0.29,0-0.29,0a0.39,0.39,0,0,1-.38-0.38A0.44,0.44,0,0,1,16,2.27h0.16l0.54,0.07a5.15,5.15,0,0,0,.67,0,6.86,6.86,0,0,0,.83-0.07l0.42-.06h0.17a0.42,0.42,0,0,1,.52.41,0.4,0.4,0,0,1-.49.4H18.54a0.56,0.56,0,0,0-.48.16,1.48,1.48,0,0,0-.13.68V9a2.57,2.57,0,0,1-.19,1.16,0.68,0.68,0,0,1-.65.34,1.2,1.2,0,0,1-1-.84L12.94,3.15V8.73q0,0.9.61,0.9l0.29,0,0.29,0a0.34,0.34,0,0,1,.38.38q0,0.41-.54.41H13.82l-0.49-.07a5.28,5.28,0,0,0-.77-0.06,6.88,6.88,0,0,0-.8.06l-0.59.07H11A0.42,0.42,0,0,1,10.47,10a0.33,0.33,0,0,1,.38-0.37l0.32,0a1,1,0,0,0,.25,0q0.61,0,.61-0.9V3.93Q12,3,11.42,3l-0.24,0-0.33,0a0.34,0.34,0,0,1-.38-0.4A0.42,0.42,0,0,1,11,2.27h0.19q0.6,0.06.92,0.06l0.54,0,0.54,0a0.49,0.49,0,0,1,.49.25Z" transform="translate(-1.84 -2.22)"/><path class="cls-1" d="M21.2,8.73V3.93Q21.2,3,20.59,3l-0.25,0L20,3.09a0.34,0.34,0,0,1-.38-0.4,0.42,0.42,0,0,1,.53-0.42h0.18l0.59,0.07a6,6,0,0,0,.72,0q0.3,0,.72,0,1-.08,1.49-0.08a6.3,6.3,0,0,1,1.32.12,2.06,2.06,0,0,1,1.24.74,2.19,2.19,0,0,1,.45,1.39,2.06,2.06,0,0,1-.77,1.73,3.6,3.6,0,0,1-2.24.6H22.5a0.32,0.32,0,0,0-.25.07,0.55,0.55,0,0,0-.05.3V7.46a10.25,10.25,0,0,0,.09,1.84,0.47,0.47,0,0,0,.52.32,0.86,0.86,0,0,0,.25,0l0.32,0a0.33,0.33,0,0,1,.37.38,0.43,0.43,0,0,1-.53.43l-0.17,0-0.6-.08a5.74,5.74,0,0,0-.76,0,5.17,5.17,0,0,0-.68,0l-0.7.1H20.18A0.43,0.43,0,0,1,19.64,10a0.4,0.4,0,0,1,.11-0.28A0.35,0.35,0,0,1,20,9.57l0.32,0a1,1,0,0,0,.25,0Q21.2,9.63,21.2,8.73Zm1.09-5.44A1.49,1.49,0,0,0,22.2,4V5.73a0.4,0.4,0,0,0,.46.37h0.7A6.36,6.36,0,0,0,24.77,6a1.29,1.29,0,0,0,1.07-1.4Q25.84,3,23.9,3A2.63,2.63,0,0,0,22.29,3.29Z" transform="translate(-1.84 -2.22)"/><path class="cls-1" d="M32.32,9L31.89,7.79a0.49,0.49,0,0,0-.15-0.24,0.7,0.7,0,0,0-.32,0H29.28a0.49,0.49,0,0,0-.33.08,1.49,1.49,0,0,0-.23.46L28.37,9a0.75,0.75,0,0,0,0,.25,0.38,0.38,0,0,0,.47.38l0.34,0,0.33,0A0.41,0.41,0,0,1,30,10q0,0.4-.54.4l-0.26,0-0.6-.07a4.81,4.81,0,0,0-.55,0l-0.59,0-0.5.06-0.49,0a0.41,0.41,0,1,1,0-.82,0.2,0.2,0,0,1,.14,0H26.7a0.55,0.55,0,0,0,.49-0.25,3,3,0,0,0,.24-0.57l2.23-6.06a0.74,0.74,0,0,1,.76-0.51,0.71,0.71,0,0,1,.73.5l2.15,6a2.37,2.37,0,0,0,.37.74,0.62,0.62,0,0,0,.48.18l0.14,0,0.34,0a0.38,0.38,0,0,1,.46.4,0.39,0.39,0,0,1-.46.42l-0.35,0a10.08,10.08,0,0,0-1.13-.09q-0.45,0-1.44.1l-0.38,0A0.4,0.4,0,0,1,30.86,10a0.42,0.42,0,0,1,.53-0.41l0.32,0L32,9.6a0.32,0.32,0,0,0,.4-0.32A1.76,1.76,0,0,0,32.32,9ZM31.46,6.52L30.38,3.21l-1.1,3.31,0,0.08c0,0.07.06,0.11,0.18,0.11h1.91c0.1,0,.14,0,0.14-0.1A0.4,0.4,0,0,0,31.46,6.52Z" transform="translate(-1.84 -2.22)"/><path class="cls-1" d="M36.78,3.92Q36.78,3,36.17,3a1,1,0,0,0-.25,0l-0.32,0A0.35,0.35,0,0,1,35.33,3a0.39,0.39,0,0,1-.11-0.28,0.43,0.43,0,0,1,.53-0.42h0.17l0.64,0.08a5.59,5.59,0,0,0,.74,0,6.12,6.12,0,0,0,.82-0.06l0.54-.07h0.17a0.43,0.43,0,0,1,.53.42,0.39,0.39,0,0,1-.11.28,0.35,0.35,0,0,1-.26.11l-0.32,0a1,1,0,0,0-.25,0q-0.61,0-.61.89V8.73q0,0.9.61,0.9l0.25,0,0.32,0a0.33,0.33,0,0,1,.37.38,0.43,0.43,0,0,1-.53.43H38.66L38,10.28a4.31,4.31,0,0,0-.66,0,6.06,6.06,0,0,0-.9.06l-0.55.08H35.74A0.42,0.42,0,0,1,35.22,10a0.33,0.33,0,0,1,.37-0.38l0.32,0a0.94,0.94,0,0,0,.25,0q0.61,0,.61-0.9V3.92Z" transform="translate(-1.84 -2.22)"/><path class="cls-1" d="M41.38,3.92q0-.9-0.61-0.9L40.52,3l-0.32,0a0.33,0.33,0,0,1-.37-0.38,0.43,0.43,0,0,1,.54-0.42h0.16l0.64,0.08a5.77,5.77,0,0,0,.77,0,6.32,6.32,0,0,0,.67,0l0.78-.08a6,6,0,0,1,.6,0,4.68,4.68,0,0,1,1.82.31A3.11,3.11,0,0,1,47.31,4a4.75,4.75,0,0,1,.56,2.34,4.91,4.91,0,0,1-.44,2.12,3,3,0,0,1-1.21,1.39,4.35,4.35,0,0,1-2.23.54l-0.54,0-0.83-.07q-0.42,0-.88,0a4.68,4.68,0,0,0-.65,0l-0.58.08H40.34A0.42,0.42,0,0,1,39.82,10a0.4,0.4,0,0,1,.11-0.28,0.35,0.35,0,0,1,.26-0.11l0.32,0a1,1,0,0,0,.25,0q0.61,0,.61-0.9V3.92Zm1-.12V8.85a0.62,0.62,0,0,0,.54.67,5.91,5.91,0,0,0,1,0A2.57,2.57,0,0,0,46,8.79a3.71,3.71,0,0,0,.78-2.46,4,4,0,0,0-.47-2A2.17,2.17,0,0,0,45,3.23a4.56,4.56,0,0,0-1.27-.16,3.51,3.51,0,0,0-1.16.11A0.65,0.65,0,0,0,42.39,3.79Z" transform="translate(-1.84 -2.22)"/></svg>