<?xml version="1.0" encoding="utf-8"?>
<!-- Generator: Adobe Illustrator 19.2.0, SVG Export Plug-In . SVG Version: 6.00 Build 0)  -->
<svg version="1.1" id="Layer_1" xmlns="http://www.w3.org/2000/svg" xmlns:xlink="http://www.w3.org/1999/xlink" x="0px" y="0px"
	 viewBox="0 0 20 20" style="enable-background:new 0 0 20 20;" xml:space="preserve">
<style type="text/css">
	.st0{fill:none;stroke:#18748A;stroke-width:0.5;stroke-miterlimit:10;}
	.st1{opacity:0.8;fill:#7ACCD0;enable-background:new    ;}
	.st2{fill:#18748A;}
	.st3{fill:none;stroke:#18748A;stroke-width:0.25;stroke-linecap:round;stroke-linejoin:round;stroke-miterlimit:10;}
</style>
<circle class="st0" cx="10" cy="10" r="9.5"/>
<g>
	<g>
		<g>
			<circle class="st1" cx="17.2" cy="11.5" r="1.2"/>
			<circle class="st1" cx="2.8" cy="11.5" r="1.2"/>
		</g>
		<g>
			<path class="st2" d="M7.5,7.1c0-0.8-0.6-1.4-1.4-1.4c-0.5,0-1,0.3-1.2,0.7C4.7,6,4.2,5.7,3.7,5.7C3,5.7,2.3,6.4,2.3,7.1v0.1l0,0
				c0,0,0,1.1,2.5,3.3c0,0,0.1,0.1,0.1,0c1.7-1.4,2.2-2.4,2.4-2.9C7.5,7.5,7.5,7.3,7.5,7.1z"/>
			<path class="st2" d="M17.7,7.1c0-0.8-0.6-1.4-1.4-1.4c-0.5,0-1,0.3-1.2,0.7c-0.2-0.4-0.7-0.7-1.2-0.7c-0.8,0-1.4,0.6-1.4,1.4v0.1
				l0,0c0,0,0,1.1,2.5,3.3c0,0,0.1,0.1,0.1,0c1.7-1.4,2.2-2.4,2.4-2.9C17.6,7.5,17.7,7.3,17.7,7.1z"/>
		</g>
	</g>
	<path class="st3" d="M3.8,13.2c1.2,2.2,3.5,3.7,6.1,3.7s4.9-1.4,6.1-3.6"/>
</g>
</svg>
