<?xml version="1.0" encoding="utf-8"?>
<!-- Generator: Adobe Illustrator 21.1.0, SVG Export Plug-In . SVG Version: 6.00 Build 0)  -->
<svg version="1.1" id="Layer_1" xmlns="http://www.w3.org/2000/svg" xmlns:xlink="http://www.w3.org/1999/xlink" x="0px" y="0px"
	 viewBox="0 0 128 128" style="enable-background:new 0 0 128 128;" xml:space="preserve">
<style type="text/css">
	.st0{fill-rule:evenodd;clip-rule:evenodd;fill:#727270;}
</style>
<path class="st0" d="M75.2,84.7C64,90.7,50,86.6,44,75.6c-6.2-11.1-2.1-25.1,9.1-31.1c10.9-6.2,25-2.1,31,8.9
	C90.3,64.7,86.1,78.5,75.2,84.7L75.2,84.7z M101.2,27.6L101.2,27.6c-2.9-3.1-6-5.6-9.5-7.8l1.6-8.9c0.4-3.1-1.4-5.8-4.3-6.8
	L75.6,0.2c-2.9-0.8-5.8,0.6-7,3.5l-3.7,8.4c-4.1-0.2-8.5,0.2-12.6,1.2l-5.2-7.4c-1.7-2.5-5-3.1-7.7-1.7l-12,6.6
	c-2.7,1.6-3.7,4.7-2.7,7.4l3.3,8.3c-3.1,3.1-6,6.6-8.3,10.5l-8.7-1.6c-3.1-0.6-5.8,1.4-6.6,4.1L0.2,52.8c-0.8,2.9,0.6,6,3.5,7
	l7.9,3.5c-0.2,4.5,0.4,9.1,1.4,13.4l-6.8,4.7c-2.3,1.9-3.1,5-1.7,7.8l6.6,12.2c1.6,2.5,4.8,3.7,7.4,2.5l7.8-3.1
	c2.9,3.3,6.4,6,10.1,8.3l-1.2,8c-0.6,2.9,1.2,5.8,4.1,6.6l13.2,4.1c2.9,0.8,6-0.8,7.2-3.5l3.1-7.4c4.7,0.4,9.1-0.4,13.8-1.4l4.7,6.6
	c1.5,2.5,5,3.1,7.6,1.7l12.2-6.6c2.5-1.6,3.7-4.8,2.5-7.6l-3.1-7.4c3.5-3.3,6.6-7,8.9-11.3l8.1,1.4c3.1,0.6,5.8-1.2,6.8-4.1
	l3.7-13.4c1-2.9-0.6-5.8-3.3-7l-7.9-3.3c0-4.5-0.6-8.9-1.5-13.2l7-4.9c2.3-1.9,3.1-5.2,1.7-7.8l-6.8-12.2c-1.4-2.5-4.5-3.9-7.4-2.5
	L101.2,27.6z"/>
</svg>
