<?xml version="1.0" encoding="utf-8"?>
<!-- Generator: Adobe Illustrator 21.1.0, SVG Export Plug-In . SVG Version: 6.00 Build 0)  -->
<svg version="1.1" id="Layer_1" xmlns="http://www.w3.org/2000/svg" xmlns:xlink="http://www.w3.org/1999/xlink" x="0px" y="0px"
	 viewBox="0 0 128 128" style="enable-background:new 0 0 128 128;" xml:space="preserve">
<style type="text/css">
	.st0{fill:#42A5F5;}
	.st1{fill:#FFFFFF;}
</style>
<g>
	<rect class="st0" width="128" height="128"/>
	<g>
		<path class="st1" d="M31.8,52.8h13.8v44.4H31.8V52.8z M38.7,30.8c4.4,0,8,3.6,8,8c0,4.4-3.6,8-8,8c-4.4,0-8-3.6-8-8
			C30.7,34.3,34.3,30.8,38.7,30.8"/>
		<path class="st1" d="M54.3,52.8h13.2v6.1h0.2c1.8-3.5,6.4-7.2,13.1-7.2c14,0,16.6,9.2,16.6,21.2v24.4H83.5V75.7
			c0-5.2-0.1-11.8-7.2-11.8c-7.2,0-8.3,5.6-8.3,11.4v22H54.3V52.8z"/>
	</g>
</g>
</svg>
