<?xml version="1.0" encoding="utf-8"?>
<!-- Generator: Adobe Illustrator 21.1.0, SVG Export Plug-In . SVG Version: 6.00 Build 0)  -->
<svg version="1.1" id="Layer_1" xmlns="http://www.w3.org/2000/svg" xmlns:xlink="http://www.w3.org/1999/xlink" x="0px" y="0px"
	 viewBox="0 0 128 128" style="enable-background:new 0 0 128 128;" xml:space="preserve">
<style type="text/css">
	.st0{fill:#42A5F5;}
	.st1{fill:#FFFFFF;}
</style>
<g>
	<rect class="st0" width="128" height="128"/>
	<path class="st1" d="M96.7,43.7c-2.4,1.1-5,1.8-7.7,2.1c2.8-1.7,4.9-4.3,5.9-7.4c-2.6,1.5-5.5,2.7-8.5,3.3
		c-2.4-2.6-5.9-4.2-9.8-4.2c-7.4,0-13.4,6-13.4,13.4c0,1.1,0.1,2.1,0.3,3.1c-11.1-0.6-21-5.9-27.6-14c-1.2,2-1.8,4.3-1.8,6.7
		c0,4.6,2.4,8.8,6,11.2c-2.2-0.1-4.3-0.7-6.1-1.7v0.2c0,6.5,4.6,11.9,10.7,13.1c-1.1,0.3-2.3,0.5-3.5,0.5c-0.9,0-1.7-0.1-2.5-0.2
		c1.7,5.3,6.7,9.2,12.5,9.3c-4.6,3.6-10.4,5.7-16.6,5.7c-1.1,0-2.1-0.1-3.2-0.2c5.9,3.8,13,6,20.5,6C76.5,90.5,90,70.1,90,52.4
		c0-0.6,0-1.2,0-1.7C92.6,48.8,94.9,46.4,96.7,43.7z"/>
</g>
</svg>
